<svg aria-hidden="true" style="width:0;height:0;position:absolute;overflow:hidden" xmlns="http://www.w3.org/2000/svg"><defs><symbol id="icon-heart" viewBox="0 0 34 32"><path fill="#ff6b08" style="fill:var(--color1,#ff6b08)" d="m17.231 31.705-2.412-2.412C5.859 21.367.001 16.025.001 9.478.001 4.136 4.136.001 9.478.001c2.929 0 5.858 1.378 7.754 3.618 1.895-2.24 4.825-3.618 7.754-3.618 5.342 0 9.477 4.135 9.477 9.477 0 6.548-5.858 11.889-14.818 19.815l-2.412 2.412z"/></symbol><symbol id="icon-logo" viewBox="0 0 32 32"><path fill="none" stroke="#fff" style="stroke:var(--color2,#fff)" stroke-linejoin="round" stroke-linecap="round" stroke-width="2.667" d="M9.333 2.667v26.667M26.427 2.667H5.574a2.907 2.907 0 0 0-2.907 2.907v20.853a2.907 2.907 0 0 0 2.907 2.907h20.853a2.907 2.907 0 0 0 2.907-2.907V5.574a2.907 2.907 0 0 0-2.907-2.907zM22.667 2.667v26.667M2.667 16h26.667M2.667 9.333h6.667M2.667 22.667h6.667M22.667 22.667h6.667M22.667 9.333h6.667"/></symbol><symbol id="icon-search" viewBox="0 0 32 32"><path fill="none" stroke="#fff" style="stroke:var(--color2,#fff)" stroke-linejoin="round" stroke-linecap="round" stroke-width="2.667" d="M14.667 25.333c5.891 0 10.667-4.776 10.667-10.667S20.558 3.999 14.667 3.999 4 8.775 4 14.666s4.776 10.667 10.667 10.667zM28 28.001l-5.8-5.8"/></symbol><symbol id="icon-Vector-1" viewBox="0 0 32 32"><path d="M32 3.223 28.777 0 16 12.777 3.223 0 0 3.223 12.777 16 0 28.777 3.223 32 16 19.223 28.777 32 32 28.777 19.223 16 32 3.223z"/></symbol><symbol id="icon-sun" viewBox="0 0 32 32"><path d="M6.733 8.79a1.454 1.454 0 1 0 2.056-2.057L6.753 4.697a1.456 1.456 0 1 0-2.057 2.055l.001.001L6.733 8.79zm23.8 5.756h-2.879a1.454 1.454 0 0 0 0 2.908h2.879a1.454 1.454 0 0 0 0-2.908zM5.817 16c0-.803-.651-1.454-1.454-1.454H1.468c-.811 0-1.467.646-1.467 1.454 0 .804.644 1.454 1.467 1.454h2.881c.811 0 1.469-.644 1.469-1.454zM16 7.271c-4.819 0-8.725 3.906-8.725 8.725s3.906 8.725 8.725 8.725c4.816 0 8.725-3.907 8.725-8.725S20.816 7.271 16 7.271zm0 14.541a5.817 5.817 0 0 1 0-11.634 5.817 5.817 0 0 1 0 11.634zm-9.267 1.399-2.036 2.036a1.454 1.454 0 1 0 2.056 2.056l2.036-2.036a1.456 1.456 0 1 0-2.055-2.057l-.001.001zM25.267 8.79l2.036-2.037a1.454 1.454 0 1 0-2.056-2.056l-2.036 2.036a1.454 1.454 0 0 0-.01 2.066c.57.567 1.485.571 2.066-.009zM16 26.183c-.803 0-1.454.651-1.454 1.454v.017-.001 2.879l-.001.065a1.456 1.456 0 1 0 2.91-.068v.003-2.879c0-.813-.644-1.47-1.454-1.47zm9.267-2.972a1.454 1.454 0 1 0-2.056 2.056l2.036 2.036a1.455 1.455 0 0 0 2.066.01c.264-.263.427-.626.427-1.028 0-.407-.167-.774-.437-1.038l-2.036-2.036zM16 5.817c.804 0 1.454-.644 1.454-1.469V1.469a1.454 1.454 0 0 0-2.908 0v2.879c0 .811.646 1.469 1.454 1.469z"/></symbol><symbol id="icon-moon" viewBox="0 0 32 32"><path d="M16 28.109h-.005C9.307 28.109 3.886 22.688 3.886 16S9.307 3.891 15.995 3.891c.737 0 1.458.066 2.158.192l-.074-.011a.8.8 0 0 1-.005 1.577l-.005.001c-3.444.58-6.035 3.54-6.035 7.105a7.2 7.2 0 0 0 12.292 5.09 7.138 7.138 0 0 0 2.017-3.883l.006-.042a.802.802 0 0 1 .785-.672.8.8 0 0 1 .786.658l.001.005c.116.629.182 1.352.182 2.091 0 6.686-5.419 12.106-12.105 12.107zM14.003 5.685c-4.881.972-8.508 5.221-8.508 10.318 0 5.805 4.706 10.51 10.51 10.51 5.096 0 9.346-3.627 10.307-8.441l.011-.067a8.777 8.777 0 0 1-7.072 3.558 8.807 8.807 0 0 1-6.228-15.034c.298-.298.618-.575.956-.828l.023-.017z"/><path d="M20 16.8h-4.001a.8.8 0 0 1-.565-1.366l2.635-2.634H16a.8.8 0 1 1 0-1.6h4.001a.8.8 0 0 1 .565 1.366L17.931 15.2H20a.8.8 0 1 1 0 1.6zm7.309-7.309h-4a.8.8 0 0 1-.567-1.365l2.635-2.635h-2.069a.8.8 0 1 1 0-1.6h4.001a.8.8 0 0 1 .565 1.366l-2.635 2.634h2.069a.8.8 0 1 1 0 1.6z"/></symbol></defs></svg>