<svg aria-hidden="true" style="position: absolute; width: 0; height: 0; overflow: hidden;" version="1.1" xmlns="http://www.w3.org/2000/svg" xmlns:xlink="http://www.w3.org/1999/xlink">
<defs>
<symbol id="icon-heart" viewBox="0 0 34 32">
<path fill="#ff6b08" style="fill: var(--color1, #ff6b08)" d="M17.231 31.705l-2.412-2.412c-8.96-7.926-14.818-13.268-14.818-19.815 0-5.342 4.135-9.477 9.477-9.477 2.929 0 5.858 1.378 7.754 3.618 1.895-2.24 4.825-3.618 7.754-3.618 5.342 0 9.477 4.135 9.477 9.477 0 6.548-5.858 11.889-14.818 19.815l-2.412 2.412z"></path>
</symbol>
<symbol id="icon-logo" viewBox="0 0 32 32">
<path fill="none" stroke="#fff" style="stroke: var(--color2, #fff)" stroke-linejoin="round" stroke-linecap="round" stroke-miterlimit="4" stroke-width="2.6667" d="M9.333 2.667v26.667"></path>
<path fill="none" stroke="#fff" style="stroke: var(--color2, #fff)" stroke-linejoin="round" stroke-linecap="round" stroke-miterlimit="4" stroke-width="2.6667" d="M26.427 2.667h-20.853c-1.605 0-2.907 1.301-2.907 2.907v20.853c0 1.605 1.301 2.907 2.907 2.907h20.853c1.605 0 2.907-1.301 2.907-2.907v-20.853c0-1.605-1.301-2.907-2.907-2.907z"></path>
<path fill="none" stroke="#fff" style="stroke: var(--color2, #fff)" stroke-linejoin="round" stroke-linecap="round" stroke-miterlimit="4" stroke-width="2.6667" d="M22.667 2.667v26.667"></path>
<path fill="none" stroke="#fff" style="stroke: var(--color2, #fff)" stroke-linejoin="round" stroke-linecap="round" stroke-miterlimit="4" stroke-width="2.6667" d="M2.667 16h26.667"></path>
<path fill="none" stroke="#fff" style="stroke: var(--color2, #fff)" stroke-linejoin="round" stroke-linecap="round" stroke-miterlimit="4" stroke-width="2.6667" d="M2.667 9.333h6.667"></path>
<path fill="none" stroke="#fff" style="stroke: var(--color2, #fff)" stroke-linejoin="round" stroke-linecap="round" stroke-miterlimit="4" stroke-width="2.6667" d="M2.667 22.667h6.667"></path>
<path fill="none" stroke="#fff" style="stroke: var(--color2, #fff)" stroke-linejoin="round" stroke-linecap="round" stroke-miterlimit="4" stroke-width="2.6667" d="M22.667 22.667h6.667"></path>
<path fill="none" stroke="#fff" style="stroke: var(--color2, #fff)" stroke-linejoin="round" stroke-linecap="round" stroke-miterlimit="4" stroke-width="2.6667" d="M22.667 9.333h6.667"></path>
</symbol>
<symbol id="icon-search" viewBox="0 0 32 32">
<path fill="none" stroke="#fff" style="stroke: var(--color2, #fff)" stroke-linejoin="round" stroke-linecap="round" stroke-miterlimit="4" stroke-width="2.6667" d="M14.667 25.333c5.891 0 10.667-4.776 10.667-10.667s-4.776-10.667-10.667-10.667c-5.891 0-10.667 4.776-10.667 10.667s4.776 10.667 10.667 10.667z"></path>
<path fill="none" stroke="#fff" style="stroke: var(--color2, #fff)" stroke-linejoin="round" stroke-linecap="round" stroke-miterlimit="4" stroke-width="2.6667" d="M28 28.001l-5.8-5.8"></path>
</symbol>
<symbol id="icon-Vector-1" viewBox="0 0 32 32">
    <path d="M32 3.223l-3.223-3.223-12.777 12.777-12.777-12.777-3.223 3.223 12.777 12.777-12.777 12.777 3.223 3.223 12.777-12.777 12.777 12.777 3.223-3.223-12.777-12.777 12.777-12.777z"></path>
</symbol>
<symbol id="icon-sun" viewBox="0 0 32 32">
<path d="M6.733 8.79c0.263 0.263 0.627 0.426 1.028 0.426 0.803 0 1.454-0.651 1.454-1.454 0-0.402-0.163-0.766-0.426-1.029l-2.036-2.036c-0.267-0.293-0.651-0.477-1.077-0.477-0.804 0-1.456 0.652-1.456 1.456 0 0.426 0.183 0.81 0.476 1.076l0.001 0.001 2.036 2.037zM30.533 14.546h-2.879c-0.803 0-1.454 0.651-1.454 1.454s0.651 1.454 1.454 1.454v0h2.879c0.803 0 1.454-0.651 1.454-1.454s-0.651-1.454-1.454-1.454v0zM5.817 16c0-0 0-0 0-0 0-0.803-0.651-1.454-1.454-1.454-0.005 0-0.010 0-0.015 0h-2.88c-0.811 0-1.467 0.646-1.467 1.454 0 0.804 0.644 1.454 1.467 1.454h2.881c0.811 0 1.469-0.644 1.469-1.454zM16 7.271c-4.819 0-8.725 3.906-8.725 8.725s3.906 8.725 8.725 8.725v0c4.816 0 8.725-3.907 8.725-8.725s-3.909-8.725-8.725-8.725zM16 21.812c-3.212 0-5.817-2.604-5.817-5.817s2.604-5.817 5.817-5.817v0c3.212 0 5.817 2.604 5.817 5.817s-2.604 5.817-5.817 5.817v0zM6.733 23.211l-2.036 2.036c-0.274 0.265-0.444 0.636-0.444 1.046 0 0.803 0.651 1.454 1.454 1.454 0.41 0 0.781-0.17 1.046-0.444l2.036-2.036c0.293-0.267 0.477-0.651 0.477-1.077 0-0.804-0.652-1.456-1.456-1.456-0.426 0-0.81 0.183-1.076 0.476l-0.001 0.001zM25.267 8.79l2.036-2.037c0.274-0.265 0.444-0.636 0.444-1.046 0-0.803-0.651-1.454-1.454-1.454-0.41 0-0.781 0.17-1.046 0.444l-2.036 2.036c-0.268 0.264-0.435 0.632-0.435 1.038 0 0.401 0.162 0.765 0.425 1.028l-0-0c0.57 0.567 1.485 0.571 2.066-0.009zM16 26.183c-0 0-0 0-0 0-0.803 0-1.454 0.651-1.454 1.454 0 0.006 0 0.011 0 0.017v-0.001 2.879c-0.001 0.019-0.001 0.042-0.001 0.065 0 0.804 0.652 1.456 1.456 1.456s1.456-0.652 1.456-1.456c0-0.023-0.001-0.046-0.002-0.068l0 0.003v-2.879c0-0.813-0.644-1.47-1.454-1.47zM25.267 23.211c-0.265-0.274-0.636-0.444-1.046-0.444-0.803 0-1.454 0.651-1.454 1.454 0 0.41 0.17 0.781 0.444 1.046l2.036 2.036c0.265 0.268 0.632 0.434 1.038 0.434 0.401 0 0.764-0.162 1.028-0.424l-0 0c0.264-0.263 0.427-0.626 0.427-1.028 0-0.407-0.167-0.774-0.437-1.038l-2.036-2.036zM16 5.817c0.804 0 1.454-0.644 1.454-1.469v-2.879c0-0.803-0.651-1.454-1.454-1.454s-1.454 0.651-1.454 1.454v0 2.879c0 0.811 0.646 1.469 1.454 1.469z"></path>
</symbol>
<symbol id="icon-moon" viewBox="0 0 32 32">
<path d="M16 28.109c-0.001 0-0.003 0-0.005 0-6.688 0-12.109-5.421-12.109-12.109s5.421-12.109 12.109-12.109c0.737 0 1.458 0.066 2.158 0.192l-0.074-0.011c0.378 0.068 0.662 0.395 0.662 0.788 0 0.396-0.288 0.726-0.667 0.789l-0.005 0.001c-3.444 0.58-6.035 3.54-6.035 7.105 0 3.976 3.224 7.2 7.2 7.2 1.989 0 3.789-0.806 5.092-2.11l0-0c1.039-1.030 1.763-2.377 2.017-3.883l0.006-0.042c0.064-0.382 0.391-0.67 0.785-0.672h0c0.393 0 0.719 0.284 0.786 0.658l0.001 0.005c0.116 0.629 0.182 1.352 0.182 2.091 0 6.686-5.419 12.106-12.105 12.107h-0zM14.003 5.685c-4.881 0.972-8.508 5.221-8.508 10.318 0 5.805 4.706 10.51 10.51 10.51 5.096 0 9.346-3.627 10.307-8.441l0.011-0.067c-0.27 0.361-0.547 0.681-0.845 0.979l0-0c-1.594 1.594-3.795 2.579-6.227 2.579-4.864 0-8.807-3.943-8.807-8.807 0-2.432 0.986-4.634 2.579-6.227v0c0.298-0.298 0.618-0.575 0.956-0.828l0.023-0.017z"></path>
<path d="M20 16.8h-4c-0 0-0.001 0-0.001 0-0.442 0-0.8-0.358-0.8-0.8 0-0.221 0.090-0.422 0.235-0.566h0l2.635-2.634h-2.069c-0.442 0-0.8-0.358-0.8-0.8s0.358-0.8 0.8-0.8v0h4c0 0 0.001 0 0.001 0 0.442 0 0.8 0.358 0.8 0.8 0 0.221-0.090 0.422-0.235 0.566h-0l-2.635 2.634h2.069c0.442 0 0.8 0.358 0.8 0.8s-0.358 0.8-0.8 0.8v0zM27.309 9.491h-4c-0.442-0-0.8-0.358-0.8-0.8 0-0.22 0.089-0.42 0.233-0.565l2.635-2.635h-2.069c-0.442 0-0.8-0.358-0.8-0.8s0.358-0.8 0.8-0.8v0h4c0 0 0.001 0 0.001 0 0.442 0 0.8 0.358 0.8 0.8 0 0.221-0.090 0.422-0.235 0.566h-0l-2.635 2.634h2.069c0.442 0 0.8 0.358 0.8 0.8s-0.358 0.8-0.8 0.8v0z"></path>
</symbol>
</defs>
</svg>
